<svg id="Layer_1" data-name="Layer 1" xmlns="http://www.w3.org/2000/svg" viewBox="0 0 56.69 56.69"><defs><style>.cls-1{fill:#ffc738;}.cls-1,.cls-2{fill-rule:evenodd;}.cls-2{fill:#0365fa;}</style></defs><path class="cls-1" d="M31.89,45.83a1.94,1.94,0,1,0,1.93,1.94A1.93,1.93,0,0,0,31.89,45.83Zm-5.66-.75a2.15,2.15,0,1,0,2.13,2.14A2.13,2.13,0,0,0,26.23,45.08Zm5.64-34.21a1.95,1.95,0,1,0-1.93-1.94A1.94,1.94,0,0,0,31.87,10.87ZM37.47,45a1.69,1.69,0,1,0,1.68,1.69A1.68,1.68,0,0,0,37.47,45Zm9-6.07a1,1,0,1,0,1,1A1,1,0,0,0,46.48,38.89Zm0-21.1a1,1,0,1,0-1-1A1,1,0,0,0,46.47,17.79Zm-4-3.67a1.37,1.37,0,0,0,0-2.74,1.37,1.37,0,1,0,0,2.74Zm0,28.44a1.37,1.37,0,1,0,1.36,1.37A1.37,1.37,0,0,0,42.47,42.56Zm-5-30.82A1.7,1.7,0,1,0,35.77,10,1.69,1.69,0,0,0,37.45,11.74ZM11.75,28A2.53,2.53,0,1,0,9.23,25.5,2.52,2.52,0,0,0,11.75,28ZM16.56,17.7a2.42,2.42,0,1,0-2.41-2.42A2.4,2.4,0,0,0,16.56,17.7Zm-2.3,13.51a2.52,2.52,0,1,0-2.51,2.53A2.52,2.52,0,0,0,14.26,31.21Zm-.87-8.69A2.5,2.5,0,1,0,10.91,20,2.49,2.49,0,0,0,13.39,22.52Zm12.82-10.9a2.15,2.15,0,1,0-2.14-2.15A2.15,2.15,0,0,0,26.21,11.62ZM15.88,36.68a2.48,2.48,0,1,0-2.48,2.48A2.48,2.48,0,0,0,15.88,36.68ZM21,42.74A2.3,2.3,0,1,0,23.26,45,2.3,2.3,0,0,0,21,42.74ZM21,14a2.3,2.3,0,1,0-2.3-2.3A2.3,2.3,0,0,0,21,14ZM16.57,39A2.42,2.42,0,1,0,19,41.42,2.42,2.42,0,0,0,16.57,39Z"/><path class="cls-2" d="M28.37,13.72a2.11,2.11,0,1,0,2.09,2.1A2.09,2.09,0,0,0,28.37,13.72ZM34,39.38a1.74,1.74,0,1,0,1.72,1.74A1.73,1.73,0,0,0,34,39.38Zm0-25.54a1.74,1.74,0,1,0,1.73,1.74A1.73,1.73,0,0,0,34,13.84ZM39.1,37.75A1.23,1.23,0,1,0,40.33,39,1.22,1.22,0,0,0,39.1,37.75Zm-10.74,1a2.1,2.1,0,1,0,2.09,2.1A2.09,2.09,0,0,0,28.36,38.78ZM23.41,16.07a2.35,2.35,0,1,0,2.34,2.35A2.35,2.35,0,0,0,23.41,16.07ZM39.11,19a1.23,1.23,0,1,0-1.23-1.22A1.22,1.22,0,0,0,39.11,19ZM20,25.35a2.49,2.49,0,1,0-2.48-2.48A2.48,2.48,0,0,0,20,25.35Zm0,6a2.48,2.48,0,1,0,2.47,2.48A2.47,2.47,0,0,0,20,31.35Zm3.4,4.59a2.35,2.35,0,1,0,2.33,2.34A2.33,2.33,0,0,0,23.41,35.94Zm-2.09-7.59a2.52,2.52,0,1,0-2.52,2.54A2.53,2.53,0,0,0,21.32,28.35Z"/></svg>